solid OpenSCAD_Model
  facet normal -1 0 0
    outer loop
      vertex -50 -12.5 0
      vertex -50 -12.5 30
      vertex -50 12.5 0
    endloop
  endfacet
  facet normal -1 0 0
    outer loop
      vertex -50 12.5 0
      vertex -50 -12.5 30
      vertex -50 12.5 30
    endloop
  endfacet
  facet normal 0 -1 0
    outer loop
      vertex -37.5 -12.5 15
      vertex -50 -12.5 0
      vertex -12.1645 -12.5 0
    endloop
  endfacet
  facet normal 0 -1 0
    outer loop
      vertex -37.5 -12.5 15
      vertex -37.5 -12.5 30
      vertex -50 -12.5 30
    endloop
  endfacet
  facet normal 0 -1 0
    outer loop
      vertex -50 -12.5 30
      vertex -50 -12.5 0
      vertex -37.5 -12.5 15
    endloop
  endfacet
  facet normal 0 -1 0
    outer loop
      vertex -12.1645 -12.5 15
      vertex -37.5 -12.5 15
      vertex -12.1645 -12.5 0
    endloop
  endfacet
  facet normal 0 0 -1
    outer loop
      vertex -50 -12.5 0
      vertex -50 12.5 0
      vertex -12.1645 -12.5 0
    endloop
  endfacet
  facet normal 0 0 -1
    outer loop
      vertex -12.2268 2.5989 0
      vertex -50 12.5 0
      vertex -12.1645 12.5 0
    endloop
  endfacet
  facet normal 0 0 -1
    outer loop
      vertex -10.1127 7.34732 0
      vertex -11.7098 13.005 0
      vertex -8.75 15.1554 0
    endloop
  endfacet
  facet normal 0 0 -1
    outer loop
      vertex -8.36413 9.28931 0
      vertex -8.75 15.1554 0
      vertex -5.4078 16.6435 0
    endloop
  endfacet
  facet normal 0 0 -1
    outer loop
      vertex -3.86271 11.8882 0
      vertex -5.4078 16.6435 0
      vertex -1.82925 17.4041 0
    endloop
  endfacet
  facet normal 0 0 -1
    outer loop
      vertex -1.30661 12.4315 0
      vertex -1.82925 17.4041 0
      vertex 1.82925 17.4041 0
    endloop
  endfacet
  facet normal 0 0 -1
    outer loop
      vertex 1.30661 12.4315 0
      vertex 1.82925 17.4041 0
      vertex 5.4078 16.6435 0
    endloop
  endfacet
  facet normal 0 0 -1
    outer loop
      vertex 3.86271 11.8882 0
      vertex 5.4078 16.6435 0
      vertex 8.75 15.1554 0
    endloop
  endfacet
  facet normal 0 0 -1
    outer loop
      vertex 6.25 10.8253 0
      vertex 8.75 15.1554 0
      vertex 11.7098 13.005 0
    endloop
  endfacet
  facet normal 0 0 -1
    outer loop
      vertex 9.2249 8.33333 0
      vertex 11.7098 13.005 0
      vertex 14.1578 10.2862 0
    endloop
  endfacet
  facet normal 0 0 -1
    outer loop
      vertex 8.36413 9.28931 0
      vertex 11.7098 13.005 0
      vertex 9.2249 8.33333 0
    endloop
  endfacet
  facet normal 0 0 -1
    outer loop
      vertex 6.25 10.8253 0
      vertex 11.7098 13.005 0
      vertex 8.36413 9.28931 0
    endloop
  endfacet
  facet normal 0 0 -1
    outer loop
      vertex 3.86271 11.8882 0
      vertex 8.75 15.1554 0
      vertex 6.25 10.8253 0
    endloop
  endfacet
  facet normal 0 0 -1
    outer loop
      vertex 1.30661 12.4315 0
      vertex 5.4078 16.6435 0
      vertex 3.86271 11.8882 0
    endloop
  endfacet
  facet normal 0 0 -1
    outer loop
      vertex -8.36413 -9.28931 0
      vertex -12.1645 -12.5 0
      vertex -10.1127 -7.34732 0
    endloop
  endfacet
  facet normal 0 0 -1
    outer loop
      vertex -1.30661 12.4315 0
      vertex 1.82925 17.4041 0
      vertex 1.30661 12.4315 0
    endloop
  endfacet
  facet normal 0 0 -1
    outer loop
      vertex -3.86271 11.8882 0
      vertex -1.82925 17.4041 0
      vertex -1.30661 12.4315 0
    endloop
  endfacet
  facet normal 0 0 -1
    outer loop
      vertex -6.25 10.8253 0
      vertex -5.4078 16.6435 0
      vertex -3.86271 11.8882 0
    endloop
  endfacet
  facet normal 0 0 -1
    outer loop
      vertex -8.36413 9.28931 0
      vertex -5.4078 16.6435 0
      vertex -6.25 10.8253 0
    endloop
  endfacet
  facet normal 0 0 -1
    outer loop
      vertex -12.2268 2.5989 0
      vertex -11.7098 13.005 0
      vertex -11.4193 5.08421 0
    endloop
  endfacet
  facet normal 0 0 -1
    outer loop
      vertex -10.1127 7.34732 0
      vertex -8.75 15.1554 0
      vertex -8.36413 9.28931 0
    endloop
  endfacet
  facet normal 0 0 -1
    outer loop
      vertex -11.4193 5.08421 0
      vertex -11.7098 13.005 0
      vertex -10.1127 7.34732 0
    endloop
  endfacet
  facet normal 0 0 -1
    outer loop
      vertex -12.2268 2.5989 0
      vertex -12.1645 12.5 0
      vertex -11.7098 13.005 0
    endloop
  endfacet
  facet normal 0 0 -1
    outer loop
      vertex -12.5 0 0
      vertex -50 12.5 0
      vertex -12.2268 2.5989 0
    endloop
  endfacet
  facet normal 0 0 -1
    outer loop
      vertex -11.4193 -5.08421 0
      vertex -12.1645 -12.5 0
      vertex -12.2268 -2.5989 0
    endloop
  endfacet
  facet normal 0 0 -1
    outer loop
      vertex -12.1645 -12.5 0
      vertex -50 12.5 0
      vertex -12.5 0 0
    endloop
  endfacet
  facet normal 0 0 -1
    outer loop
      vertex -12.1645 -12.5 0
      vertex -12.5 0 0
      vertex -12.2268 -2.5989 0
    endloop
  endfacet
  facet normal 0 0 -1
    outer loop
      vertex -10.1127 -7.34732 0
      vertex -12.1645 -12.5 0
      vertex -11.4193 -5.08421 0
    endloop
  endfacet
  facet normal 0 0 -1
    outer loop
      vertex -5.4078 -16.6435 0
      vertex 1.82925 -17.4041 0
      vertex -1.82925 -17.4041 0
    endloop
  endfacet
  facet normal 0 0 -1
    outer loop
      vertex -12.1645 -12.5 0
      vertex -6.25 -10.8253 0
      vertex -3.86271 -11.8882 0
    endloop
  endfacet
  facet normal 0 0 -1
    outer loop
      vertex 9.2249 8.33333 0
      vertex 14.1578 10.2862 0
      vertex 15.2853 8.33333 0
    endloop
  endfacet
  facet normal 0 0 -1
    outer loop
      vertex -3.86271 -11.8882 0
      vertex -1.30661 -12.4315 0
      vertex -12.1645 -12.5 0
    endloop
  endfacet
  facet normal 0 0 -1
    outer loop
      vertex -1.30661 -12.4315 0
      vertex 1.30661 -12.4315 0
      vertex -12.1645 -12.5 0
    endloop
  endfacet
  facet normal 0 0 -1
    outer loop
      vertex 6.25 -10.8253 0
      vertex 15.2853 -8.33333 0
      vertex 3.86271 -11.8882 0
    endloop
  endfacet
  facet normal 0 0 -1
    outer loop
      vertex 8.36413 -9.28931 0
      vertex 9.2249 -8.33333 0
      vertex 15.2853 -8.33333 0
    endloop
  endfacet
  facet normal 0 0 -1
    outer loop
      vertex 8.36413 -9.28931 0
      vertex 15.2853 -8.33333 0
      vertex 6.25 -10.8253 0
    endloop
  endfacet
  facet normal 0 0 -1
    outer loop
      vertex 3.86271 -11.8882 0
      vertex 15.2853 -8.33333 0
      vertex 14.1578 -10.2862 0
    endloop
  endfacet
  facet normal 0 0 -1
    outer loop
      vertex 3.86271 -11.8882 0
      vertex 14.1578 -10.2862 0
      vertex 1.30661 -12.4315 0
    endloop
  endfacet
  facet normal 0 0 -1
    outer loop
      vertex 1.30661 -12.4315 0
      vertex 14.1578 -10.2862 0
      vertex 11.7098 -13.005 0
    endloop
  endfacet
  facet normal 0 0 -1
    outer loop
      vertex 1.30661 -12.4315 0
      vertex 11.7098 -13.005 0
      vertex -12.1645 -12.5 0
    endloop
  endfacet
  facet normal 0 0 -1
    outer loop
      vertex -11.7098 -13.005 0
      vertex 8.75 -15.1554 0
      vertex -8.75 -15.1554 0
    endloop
  endfacet
  facet normal 0 0 -1
    outer loop
      vertex -8.75 -15.1554 0
      vertex 5.4078 -16.6435 0
      vertex -5.4078 -16.6435 0
    endloop
  endfacet
  facet normal 0 0 -1
    outer loop
      vertex 5.4078 -16.6435 0
      vertex 1.82925 -17.4041 0
      vertex -5.4078 -16.6435 0
    endloop
  endfacet
  facet normal 0 0 -1
    outer loop
      vertex 8.75 -15.1554 0
      vertex 5.4078 -16.6435 0
      vertex -8.75 -15.1554 0
    endloop
  endfacet
  facet normal 0 0 -1
    outer loop
      vertex 11.7098 -13.005 0
      vertex 8.75 -15.1554 0
      vertex -11.7098 -13.005 0
    endloop
  endfacet
  facet normal 0 0 -1
    outer loop
      vertex -6.25 -10.8253 0
      vertex -12.1645 -12.5 0
      vertex -8.36413 -9.28931 0
    endloop
  endfacet
  facet normal 0 0 -1
    outer loop
      vertex -12.1645 -12.5 0
      vertex 11.7098 -13.005 0
      vertex -11.7098 -13.005 0
    endloop
  endfacet
  facet normal 0 1 0
    outer loop
      vertex -12.1645 12.5 15
      vertex -12.1645 12.5 0
      vertex -37.5 12.5 15
    endloop
  endfacet
  facet normal 0 1 0
    outer loop
      vertex -50 12.5 0
      vertex -50 12.5 30
      vertex -37.5 12.5 15
    endloop
  endfacet
  facet normal 0 1 0
    outer loop
      vertex -50 12.5 0
      vertex -37.5 12.5 15
      vertex -12.1645 12.5 0
    endloop
  endfacet
  facet normal 0 1 0
    outer loop
      vertex -37.5 12.5 15
      vertex -50 12.5 30
      vertex -37.5 12.5 30
    endloop
  endfacet
  facet normal 0 0 1
    outer loop
      vertex -50 12.5 30
      vertex -50 -12.5 30
      vertex -37.5 -12.5 30
    endloop
  endfacet
  facet normal 0 0 1
    outer loop
      vertex -37.5 12.5 30
      vertex -50 12.5 30
      vertex -37.5 -12.5 30
    endloop
  endfacet
  facet normal 1 0 0
    outer loop
      vertex -37.5 -12.5 30
      vertex -37.5 -12.5 15
      vertex -37.5 12.5 15
    endloop
  endfacet
  facet normal 1 0 0
    outer loop
      vertex -37.5 12.5 30
      vertex -37.5 -12.5 30
      vertex -37.5 12.5 15
    endloop
  endfacet
  facet normal 0 0 1
    outer loop
      vertex -37.5 12.5 15
      vertex -37.5 -12.5 15
      vertex -12.1645 -12.5 15
    endloop
  endfacet
  facet normal 0 0 1
    outer loop
      vertex -15.987 -7.11789 15
      vertex -37.5 12.5 15
      vertex -14.1578 -10.2862 15
    endloop
  endfacet
  facet normal 0 0 1
    outer loop
      vertex -14.1578 -10.2862 15
      vertex -37.5 12.5 15
      vertex -12.1645 -12.5 15
    endloop
  endfacet
  facet normal 0 0 1
    outer loop
      vertex -17.1176 -3.63845 15
      vertex -37.5 12.5 15
      vertex -15.987 -7.11789 15
    endloop
  endfacet
  facet normal 0 0 1
    outer loop
      vertex -17.5 0 15
      vertex -37.5 12.5 15
      vertex -17.1176 -3.63845 15
    endloop
  endfacet
  facet normal 0 0 1
    outer loop
      vertex -17.1176 3.63845 15
      vertex -37.5 12.5 15
      vertex -17.5 0 15
    endloop
  endfacet
  facet normal 0 0 1
    outer loop
      vertex -15.987 7.11789 15
      vertex -37.5 12.5 15
      vertex -17.1176 3.63845 15
    endloop
  endfacet
  facet normal 0 0 1
    outer loop
      vertex -14.1578 10.2862 15
      vertex -37.5 12.5 15
      vertex -15.987 7.11789 15
    endloop
  endfacet
  facet normal 0 0 1
    outer loop
      vertex -12.1645 12.5 15
      vertex -37.5 12.5 15
      vertex -14.1578 10.2862 15
    endloop
  endfacet
  facet normal -0.743145 -0.669131 0
    outer loop
      vertex -14.1578 -10.2862 15
      vertex -12.1645 -12.5 15
      vertex -14.1578 -10.2862 30
    endloop
  endfacet
  facet normal -0.743145 -0.669131 0
    outer loop
      vertex -11.7098 -13.005 0
      vertex -12.1645 -12.5 15
      vertex -12.1645 -12.5 0
    endloop
  endfacet
  facet normal -0.743145 -0.669131 0
    outer loop
      vertex -11.7098 -13.005 30
      vertex -12.1645 -12.5 15
      vertex -11.7098 -13.005 0
    endloop
  endfacet
  facet normal -0.743145 -0.669131 0
    outer loop
      vertex -14.1578 -10.2862 30
      vertex -12.1645 -12.5 15
      vertex -11.7098 -13.005 30
    endloop
  endfacet
  facet normal -0.587785 -0.809017 0
    outer loop
      vertex -11.7098 -13.005 30
      vertex -11.7098 -13.005 0
      vertex -8.75 -15.1554 0
    endloop
  endfacet
  facet normal -0.587785 -0.809017 0
    outer loop
      vertex -8.75 -15.1554 30
      vertex -11.7098 -13.005 30
      vertex -8.75 -15.1554 0
    endloop
  endfacet
  facet normal -0.406736 -0.913546 0
    outer loop
      vertex -8.75 -15.1554 30
      vertex -8.75 -15.1554 0
      vertex -5.4078 -16.6435 0
    endloop
  endfacet
  facet normal -0.406736 -0.913546 0
    outer loop
      vertex -5.4078 -16.6435 30
      vertex -8.75 -15.1554 30
      vertex -5.4078 -16.6435 0
    endloop
  endfacet
  facet normal -0.207912 -0.978148 0
    outer loop
      vertex -5.4078 -16.6435 30
      vertex -5.4078 -16.6435 0
      vertex -1.82925 -17.4041 0
    endloop
  endfacet
  facet normal -0.207912 -0.978148 0
    outer loop
      vertex -1.82925 -17.4041 30
      vertex -5.4078 -16.6435 30
      vertex -1.82925 -17.4041 0
    endloop
  endfacet
  facet normal 0 -1 0
    outer loop
      vertex -1.82925 -17.4041 30
      vertex -1.82925 -17.4041 0
      vertex 1.82925 -17.4041 0
    endloop
  endfacet
  facet normal 0 -1 0
    outer loop
      vertex 1.82925 -17.4041 30
      vertex -1.82925 -17.4041 30
      vertex 1.82925 -17.4041 0
    endloop
  endfacet
  facet normal 0.207912 -0.978148 0
    outer loop
      vertex 1.82925 -17.4041 30
      vertex 1.82925 -17.4041 0
      vertex 5.4078 -16.6435 0
    endloop
  endfacet
  facet normal 0.207912 -0.978148 0
    outer loop
      vertex 5.4078 -16.6435 30
      vertex 1.82925 -17.4041 30
      vertex 5.4078 -16.6435 0
    endloop
  endfacet
  facet normal 0.406736 -0.913546 0
    outer loop
      vertex 5.4078 -16.6435 30
      vertex 5.4078 -16.6435 0
      vertex 8.75 -15.1554 0
    endloop
  endfacet
  facet normal 0.406736 -0.913546 0
    outer loop
      vertex 8.75 -15.1554 30
      vertex 5.4078 -16.6435 30
      vertex 8.75 -15.1554 0
    endloop
  endfacet
  facet normal 0.587785 -0.809017 0
    outer loop
      vertex 8.75 -15.1554 30
      vertex 8.75 -15.1554 0
      vertex 11.7098 -13.005 0
    endloop
  endfacet
  facet normal 0.587785 -0.809017 0
    outer loop
      vertex 11.7098 -13.005 30
      vertex 8.75 -15.1554 30
      vertex 11.7098 -13.005 0
    endloop
  endfacet
  facet normal 0.743145 -0.669131 0
    outer loop
      vertex 11.7098 -13.005 30
      vertex 11.7098 -13.005 0
      vertex 14.1578 -10.2862 0
    endloop
  endfacet
  facet normal 0.743145 -0.669131 0
    outer loop
      vertex 14.1578 -10.2862 30
      vertex 11.7098 -13.005 30
      vertex 14.1578 -10.2862 0
    endloop
  endfacet
  facet normal 0.866025 -0.5 0
    outer loop
      vertex 14.1578 -10.2862 30
      vertex 14.1578 -10.2862 0
      vertex 15.2853 -8.33333 0
    endloop
  endfacet
  facet normal 0.866025 -0.5 0
    outer loop
      vertex 15.2853 -8.33333 30
      vertex 14.1578 -10.2862 30
      vertex 15.2853 -8.33333 0
    endloop
  endfacet
  facet normal 0 1 0
    outer loop
      vertex 9.2249 -8.33333 26
      vertex 9.2249 -8.33333 30
      vertex 15.2853 -8.33333 30
    endloop
  endfacet
  facet normal 0 1 0
    outer loop
      vertex 9.2249 -8.33333 26
      vertex 15.2853 -8.33333 30
      vertex 15.2853 -8.33333 0
    endloop
  endfacet
  facet normal 0 1 0
    outer loop
      vertex 7.88664 -8.33333 25
      vertex 7.88664 -8.33333 26
      vertex 9.2249 -8.33333 25
    endloop
  endfacet
  facet normal 0 1 0
    outer loop
      vertex 9.2249 -8.33333 26
      vertex 15.2853 -8.33333 0
      vertex 9.2249 -8.33333 25
    endloop
  endfacet
  facet normal 0 1 0
    outer loop
      vertex 9.2249 -8.33333 26
      vertex 9.2249 -8.33333 25
      vertex 7.88664 -8.33333 26
    endloop
  endfacet
  facet normal 0 1 0
    outer loop
      vertex 9.2249 -8.33333 25
      vertex 15.2853 -8.33333 0
      vertex 9.2249 -8.33333 0
    endloop
  endfacet
  facet normal -0.743145 0.669131 0
    outer loop
      vertex 9.2249 -8.33333 25
      vertex 9.2249 -8.33333 0
      vertex 8.36413 -9.28931 25
    endloop
  endfacet
  facet normal -0.743145 0.669131 0
    outer loop
      vertex 8.36413 -9.28931 25
      vertex 9.2249 -8.33333 0
      vertex 8.36413 -9.28931 0
    endloop
  endfacet
  facet normal -0.587785 0.809017 0
    outer loop
      vertex 8.36413 -9.28931 25
      vertex 8.36413 -9.28931 0
      vertex 6.25 -10.8253 25
    endloop
  endfacet
  facet normal -0.587785 0.809017 0
    outer loop
      vertex 6.25 -10.8253 25
      vertex 8.36413 -9.28931 0
      vertex 6.25 -10.8253 0
    endloop
  endfacet
  facet normal -0.406736 0.913546 0
    outer loop
      vertex 6.25 -10.8253 25
      vertex 6.25 -10.8253 0
      vertex 3.86271 -11.8882 25
    endloop
  endfacet
  facet normal -0.406736 0.913546 0
    outer loop
      vertex 3.86271 -11.8882 25
      vertex 6.25 -10.8253 0
      vertex 3.86271 -11.8882 0
    endloop
  endfacet
  facet normal -0.207912 0.978148 0
    outer loop
      vertex 3.86271 -11.8882 25
      vertex 3.86271 -11.8882 0
      vertex 1.30661 -12.4315 25
    endloop
  endfacet
  facet normal -0.207912 0.978148 0
    outer loop
      vertex 1.30661 -12.4315 25
      vertex 3.86271 -11.8882 0
      vertex 1.30661 -12.4315 0
    endloop
  endfacet
  facet normal 0 1 0
    outer loop
      vertex 1.30661 -12.4315 25
      vertex 1.30661 -12.4315 0
      vertex -1.30661 -12.4315 25
    endloop
  endfacet
  facet normal 0 1 0
    outer loop
      vertex -1.30661 -12.4315 25
      vertex 1.30661 -12.4315 0
      vertex -1.30661 -12.4315 0
    endloop
  endfacet
  facet normal 0.207912 0.978148 0
    outer loop
      vertex -1.30661 -12.4315 25
      vertex -1.30661 -12.4315 0
      vertex -3.86271 -11.8882 25
    endloop
  endfacet
  facet normal 0.207912 0.978148 0
    outer loop
      vertex -3.86271 -11.8882 25
      vertex -1.30661 -12.4315 0
      vertex -3.86271 -11.8882 0
    endloop
  endfacet
  facet normal 0.406736 0.913546 0
    outer loop
      vertex -3.86271 -11.8882 25
      vertex -3.86271 -11.8882 0
      vertex -6.25 -10.8253 25
    endloop
  endfacet
  facet normal 0.406736 0.913546 0
    outer loop
      vertex -6.25 -10.8253 25
      vertex -3.86271 -11.8882 0
      vertex -6.25 -10.8253 0
    endloop
  endfacet
  facet normal 0.587785 0.809017 0
    outer loop
      vertex -6.25 -10.8253 25
      vertex -6.25 -10.8253 0
      vertex -8.36413 -9.28931 25
    endloop
  endfacet
  facet normal 0.587785 0.809017 0
    outer loop
      vertex -8.36413 -9.28931 25
      vertex -6.25 -10.8253 0
      vertex -8.36413 -9.28931 0
    endloop
  endfacet
  facet normal 0.743145 0.669131 0
    outer loop
      vertex -10.1127 -7.34732 25
      vertex -8.36413 -9.28931 25
      vertex -8.36413 -9.28931 0
    endloop
  endfacet
  facet normal 0.743145 0.669131 0
    outer loop
      vertex -10.1127 -7.34732 0
      vertex -10.1127 -7.34732 25
      vertex -8.36413 -9.28931 0
    endloop
  endfacet
  facet normal 0.866025 0.5 0
    outer loop
      vertex -11.4193 -5.08421 25
      vertex -10.1127 -7.34732 25
      vertex -10.1127 -7.34732 0
    endloop
  endfacet
  facet normal 0.866025 0.5 0
    outer loop
      vertex -11.4193 -5.08421 0
      vertex -11.4193 -5.08421 25
      vertex -10.1127 -7.34732 0
    endloop
  endfacet
  facet normal 0.951056 0.309017 0
    outer loop
      vertex -12.2268 -2.5989 25
      vertex -11.4193 -5.08421 25
      vertex -11.4193 -5.08421 0
    endloop
  endfacet
  facet normal 0.951056 0.309017 0
    outer loop
      vertex -12.2268 -2.5989 0
      vertex -12.2268 -2.5989 25
      vertex -11.4193 -5.08421 0
    endloop
  endfacet
  facet normal 0.994522 0.104528 0
    outer loop
      vertex -12.5 0 25
      vertex -12.2268 -2.5989 25
      vertex -12.2268 -2.5989 0
    endloop
  endfacet
  facet normal 0.994522 0.104528 0
    outer loop
      vertex -12.5 0 0
      vertex -12.5 0 25
      vertex -12.2268 -2.5989 0
    endloop
  endfacet
  facet normal 0.994522 -0.104528 0
    outer loop
      vertex -12.2268 2.5989 0
      vertex -12.2268 2.5989 25
      vertex -12.5 0 25
    endloop
  endfacet
  facet normal 0.994522 -0.104528 0
    outer loop
      vertex -12.5 0 0
      vertex -12.2268 2.5989 0
      vertex -12.5 0 25
    endloop
  endfacet
  facet normal 0.951056 -0.309017 0
    outer loop
      vertex -11.4193 5.08421 0
      vertex -11.4193 5.08421 25
      vertex -12.2268 2.5989 25
    endloop
  endfacet
  facet normal 0.951056 -0.309017 0
    outer loop
      vertex -12.2268 2.5989 0
      vertex -11.4193 5.08421 0
      vertex -12.2268 2.5989 25
    endloop
  endfacet
  facet normal 0.866025 -0.5 0
    outer loop
      vertex -10.1127 7.34732 0
      vertex -10.1127 7.34732 25
      vertex -11.4193 5.08421 25
    endloop
  endfacet
  facet normal 0.866025 -0.5 0
    outer loop
      vertex -11.4193 5.08421 0
      vertex -10.1127 7.34732 0
      vertex -11.4193 5.08421 25
    endloop
  endfacet
  facet normal 0.743145 -0.669131 0
    outer loop
      vertex -8.36413 9.28931 0
      vertex -8.36413 9.28931 25
      vertex -10.1127 7.34732 25
    endloop
  endfacet
  facet normal 0.743145 -0.669131 0
    outer loop
      vertex -10.1127 7.34732 0
      vertex -8.36413 9.28931 0
      vertex -10.1127 7.34732 25
    endloop
  endfacet
  facet normal 0.587785 -0.809017 0
    outer loop
      vertex -6.25 10.8253 0
      vertex -6.25 10.8253 25
      vertex -8.36413 9.28931 25
    endloop
  endfacet
  facet normal 0.587785 -0.809017 0
    outer loop
      vertex -8.36413 9.28931 0
      vertex -6.25 10.8253 0
      vertex -8.36413 9.28931 25
    endloop
  endfacet
  facet normal 0.406736 -0.913546 0
    outer loop
      vertex -3.86271 11.8882 0
      vertex -3.86271 11.8882 25
      vertex -6.25 10.8253 25
    endloop
  endfacet
  facet normal 0.406736 -0.913546 0
    outer loop
      vertex -6.25 10.8253 0
      vertex -3.86271 11.8882 0
      vertex -6.25 10.8253 25
    endloop
  endfacet
  facet normal 0.207912 -0.978148 0
    outer loop
      vertex -1.30661 12.4315 0
      vertex -1.30661 12.4315 25
      vertex -3.86271 11.8882 25
    endloop
  endfacet
  facet normal 0.207912 -0.978148 0
    outer loop
      vertex -3.86271 11.8882 0
      vertex -1.30661 12.4315 0
      vertex -3.86271 11.8882 25
    endloop
  endfacet
  facet normal 0 -1 0
    outer loop
      vertex 1.30661 12.4315 0
      vertex 1.30661 12.4315 25
      vertex -1.30661 12.4315 25
    endloop
  endfacet
  facet normal 0 -1 0
    outer loop
      vertex -1.30661 12.4315 0
      vertex 1.30661 12.4315 0
      vertex -1.30661 12.4315 25
    endloop
  endfacet
  facet normal -0.207912 -0.978148 0
    outer loop
      vertex 3.86271 11.8882 0
      vertex 3.86271 11.8882 25
      vertex 1.30661 12.4315 25
    endloop
  endfacet
  facet normal -0.207912 -0.978148 0
    outer loop
      vertex 1.30661 12.4315 0
      vertex 3.86271 11.8882 0
      vertex 1.30661 12.4315 25
    endloop
  endfacet
  facet normal -0.406736 -0.913546 0
    outer loop
      vertex 6.25 10.8253 0
      vertex 6.25 10.8253 25
      vertex 3.86271 11.8882 25
    endloop
  endfacet
  facet normal -0.406736 -0.913546 0
    outer loop
      vertex 3.86271 11.8882 0
      vertex 6.25 10.8253 0
      vertex 3.86271 11.8882 25
    endloop
  endfacet
  facet normal -0.587785 -0.809017 0
    outer loop
      vertex 8.36413 9.28931 0
      vertex 8.36413 9.28931 25
      vertex 6.25 10.8253 25
    endloop
  endfacet
  facet normal -0.587785 -0.809017 0
    outer loop
      vertex 6.25 10.8253 0
      vertex 8.36413 9.28931 0
      vertex 6.25 10.8253 25
    endloop
  endfacet
  facet normal -0.743145 -0.669131 0
    outer loop
      vertex 9.2249 8.33333 25
      vertex 8.36413 9.28931 25
      vertex 9.2249 8.33333 0
    endloop
  endfacet
  facet normal -0.743145 -0.669131 0
    outer loop
      vertex 9.2249 8.33333 0
      vertex 8.36413 9.28931 25
      vertex 8.36413 9.28931 0
    endloop
  endfacet
  facet normal 0 -1 0
    outer loop
      vertex 9.2249 8.33333 25
      vertex 9.2249 8.33333 0
      vertex 15.2853 8.33333 0
    endloop
  endfacet
  facet normal 0 -1 0
    outer loop
      vertex 9.2249 8.33333 26
      vertex 9.2249 8.33333 25
      vertex 15.2853 8.33333 30
    endloop
  endfacet
  facet normal 0 -1 0
    outer loop
      vertex 15.2853 8.33333 30
      vertex 9.2249 8.33333 25
      vertex 15.2853 8.33333 0
    endloop
  endfacet
  facet normal 0 -1 0
    outer loop
      vertex 7.88664 8.33333 26
      vertex 9.2249 8.33333 25
      vertex 9.2249 8.33333 26
    endloop
  endfacet
  facet normal 0 -1 0
    outer loop
      vertex 9.2249 8.33333 30
      vertex 9.2249 8.33333 26
      vertex 15.2853 8.33333 30
    endloop
  endfacet
  facet normal 0 -1 0
    outer loop
      vertex 7.88664 8.33333 25
      vertex 9.2249 8.33333 25
      vertex 7.88664 8.33333 26
    endloop
  endfacet
  facet normal 0.866025 0.5 0
    outer loop
      vertex 15.2853 8.33333 0
      vertex 14.1578 10.2862 0
      vertex 14.1578 10.2862 30
    endloop
  endfacet
  facet normal 0.866025 0.5 0
    outer loop
      vertex 15.2853 8.33333 30
      vertex 15.2853 8.33333 0
      vertex 14.1578 10.2862 30
    endloop
  endfacet
  facet normal 0.743145 0.669131 0
    outer loop
      vertex 14.1578 10.2862 0
      vertex 11.7098 13.005 0
      vertex 11.7098 13.005 30
    endloop
  endfacet
  facet normal 0.743145 0.669131 0
    outer loop
      vertex 14.1578 10.2862 30
      vertex 14.1578 10.2862 0
      vertex 11.7098 13.005 30
    endloop
  endfacet
  facet normal 0.587785 0.809017 0
    outer loop
      vertex 8.75 15.1554 0
      vertex 8.75 15.1554 30
      vertex 11.7098 13.005 0
    endloop
  endfacet
  facet normal 0.587785 0.809017 0
    outer loop
      vertex 11.7098 13.005 0
      vertex 8.75 15.1554 30
      vertex 11.7098 13.005 30
    endloop
  endfacet
  facet normal 0.406736 0.913546 0
    outer loop
      vertex 5.4078 16.6435 0
      vertex 5.4078 16.6435 30
      vertex 8.75 15.1554 0
    endloop
  endfacet
  facet normal 0.406736 0.913546 0
    outer loop
      vertex 8.75 15.1554 0
      vertex 5.4078 16.6435 30
      vertex 8.75 15.1554 30
    endloop
  endfacet
  facet normal 0.207912 0.978148 0
    outer loop
      vertex 1.82925 17.4041 0
      vertex 1.82925 17.4041 30
      vertex 5.4078 16.6435 0
    endloop
  endfacet
  facet normal 0.207912 0.978148 0
    outer loop
      vertex 5.4078 16.6435 0
      vertex 1.82925 17.4041 30
      vertex 5.4078 16.6435 30
    endloop
  endfacet
  facet normal 0 1 0
    outer loop
      vertex -1.82925 17.4041 0
      vertex -1.82925 17.4041 30
      vertex 1.82925 17.4041 0
    endloop
  endfacet
  facet normal 0 1 0
    outer loop
      vertex 1.82925 17.4041 0
      vertex -1.82925 17.4041 30
      vertex 1.82925 17.4041 30
    endloop
  endfacet
  facet normal -0.207912 0.978148 0
    outer loop
      vertex -5.4078 16.6435 0
      vertex -5.4078 16.6435 30
      vertex -1.82925 17.4041 0
    endloop
  endfacet
  facet normal -0.207912 0.978148 0
    outer loop
      vertex -1.82925 17.4041 0
      vertex -5.4078 16.6435 30
      vertex -1.82925 17.4041 30
    endloop
  endfacet
  facet normal -0.406736 0.913546 0
    outer loop
      vertex -8.75 15.1554 0
      vertex -8.75 15.1554 30
      vertex -5.4078 16.6435 0
    endloop
  endfacet
  facet normal -0.406736 0.913546 0
    outer loop
      vertex -5.4078 16.6435 0
      vertex -8.75 15.1554 30
      vertex -5.4078 16.6435 30
    endloop
  endfacet
  facet normal -0.587785 0.809017 0
    outer loop
      vertex -11.7098 13.005 0
      vertex -11.7098 13.005 30
      vertex -8.75 15.1554 0
    endloop
  endfacet
  facet normal -0.587785 0.809017 0
    outer loop
      vertex -8.75 15.1554 0
      vertex -11.7098 13.005 30
      vertex -8.75 15.1554 30
    endloop
  endfacet
  facet normal -0.743145 0.669131 0
    outer loop
      vertex -14.1578 10.2862 15
      vertex -14.1578 10.2862 30
      vertex -12.1645 12.5 15
    endloop
  endfacet
  facet normal -0.743145 0.669131 0
    outer loop
      vertex -12.1645 12.5 15
      vertex -14.1578 10.2862 30
      vertex -11.7098 13.005 30
    endloop
  endfacet
  facet normal -0.743145 0.669131 0
    outer loop
      vertex -12.1645 12.5 15
      vertex -11.7098 13.005 30
      vertex -11.7098 13.005 0
    endloop
  endfacet
  facet normal -0.743145 0.669131 0
    outer loop
      vertex -12.1645 12.5 15
      vertex -11.7098 13.005 0
      vertex -12.1645 12.5 0
    endloop
  endfacet
  facet normal -0.866025 0.5 0
    outer loop
      vertex -15.987 7.11789 15
      vertex -15.987 7.11789 30
      vertex -14.1578 10.2862 15
    endloop
  endfacet
  facet normal -0.866025 0.5 0
    outer loop
      vertex -14.1578 10.2862 15
      vertex -15.987 7.11789 30
      vertex -14.1578 10.2862 30
    endloop
  endfacet
  facet normal -0.951057 0.309017 0
    outer loop
      vertex -17.1176 3.63845 15
      vertex -17.1176 3.63845 30
      vertex -15.987 7.11789 15
    endloop
  endfacet
  facet normal -0.951057 0.309017 0
    outer loop
      vertex -15.987 7.11789 15
      vertex -17.1176 3.63845 30
      vertex -15.987 7.11789 30
    endloop
  endfacet
  facet normal -0.994522 0.104528 0
    outer loop
      vertex -17.5 0 15
      vertex -17.5 0 30
      vertex -17.1176 3.63845 15
    endloop
  endfacet
  facet normal -0.994522 0.104528 0
    outer loop
      vertex -17.1176 3.63845 15
      vertex -17.5 0 30
      vertex -17.1176 3.63845 30
    endloop
  endfacet
  facet normal -0.994522 -0.104528 0
    outer loop
      vertex -17.5 0 15
      vertex -17.1176 -3.63845 15
      vertex -17.5 0 30
    endloop
  endfacet
  facet normal -0.994522 -0.104528 0
    outer loop
      vertex -17.5 0 30
      vertex -17.1176 -3.63845 15
      vertex -17.1176 -3.63845 30
    endloop
  endfacet
  facet normal -0.951057 -0.309017 0
    outer loop
      vertex -17.1176 -3.63845 15
      vertex -15.987 -7.11789 15
      vertex -17.1176 -3.63845 30
    endloop
  endfacet
  facet normal -0.951057 -0.309017 0
    outer loop
      vertex -17.1176 -3.63845 30
      vertex -15.987 -7.11789 15
      vertex -15.987 -7.11789 30
    endloop
  endfacet
  facet normal -0.866025 -0.5 0
    outer loop
      vertex -15.987 -7.11789 15
      vertex -14.1578 -10.2862 15
      vertex -15.987 -7.11789 30
    endloop
  endfacet
  facet normal -0.866025 -0.5 0
    outer loop
      vertex -15.987 -7.11789 30
      vertex -14.1578 -10.2862 15
      vertex -14.1578 -10.2862 30
    endloop
  endfacet
  facet normal 0 0 1
    outer loop
      vertex -17.1176 3.63845 30
      vertex -17.5 0 30
      vertex -17.1176 -3.63845 30
    endloop
  endfacet
  facet normal 0 0 1
    outer loop
      vertex -14.1578 -10.2862 30
      vertex -17.1176 3.63845 30
      vertex -15.987 -7.11789 30
    endloop
  endfacet
  facet normal 0 0 1
    outer loop
      vertex -15.987 -7.11789 30
      vertex -17.1176 3.63845 30
      vertex -17.1176 -3.63845 30
    endloop
  endfacet
  facet normal 0 0 1
    outer loop
      vertex -11.7098 -13.005 30
      vertex -17.1176 3.63845 30
      vertex -14.1578 -10.2862 30
    endloop
  endfacet
  facet normal 0 0 1
    outer loop
      vertex -8.75 -15.1554 30
      vertex -17.1176 3.63845 30
      vertex -11.7098 -13.005 30
    endloop
  endfacet
  facet normal 0 0 1
    outer loop
      vertex -5.4078 -16.6435 30
      vertex -17.1176 3.63845 30
      vertex -8.75 -15.1554 30
    endloop
  endfacet
  facet normal 0 0 1
    outer loop
      vertex -10.1127 -7.34732 30
      vertex -17.1176 3.63845 30
      vertex -5.4078 -16.6435 30
    endloop
  endfacet
  facet normal 0 0 1
    outer loop
      vertex -6.25 -10.8253 30
      vertex -8.36413 -9.28931 30
      vertex -1.82925 -17.4041 30
    endloop
  endfacet
  facet normal 0 0 1
    outer loop
      vertex -1.30661 -12.4315 30
      vertex -3.86271 -11.8882 30
      vertex 1.82925 -17.4041 30
    endloop
  endfacet
  facet normal 0 0 1
    outer loop
      vertex 1.30661 -12.4315 30
      vertex -1.30661 -12.4315 30
      vertex 5.4078 -16.6435 30
    endloop
  endfacet
  facet normal 0 0 1
    outer loop
      vertex 6.25 -10.8253 30
      vertex 3.86271 -11.8882 30
      vertex 8.75 -15.1554 30
    endloop
  endfacet
  facet normal 0 0 1
    outer loop
      vertex 8.36413 -9.28931 30
      vertex 6.25 -10.8253 30
      vertex 11.7098 -13.005 30
    endloop
  endfacet
  facet normal 0 0 1
    outer loop
      vertex 14.1578 -10.2862 30
      vertex 9.2249 -8.33333 30
      vertex 11.7098 -13.005 30
    endloop
  endfacet
  facet normal 0 0 1
    outer loop
      vertex 9.2249 -8.33333 30
      vertex 8.36413 -9.28931 30
      vertex 11.7098 -13.005 30
    endloop
  endfacet
  facet normal 0 0 1
    outer loop
      vertex 11.7098 -13.005 30
      vertex 6.25 -10.8253 30
      vertex 8.75 -15.1554 30
    endloop
  endfacet
  facet normal 0 0 1
    outer loop
      vertex 8.75 -15.1554 30
      vertex 3.86271 -11.8882 30
      vertex 5.4078 -16.6435 30
    endloop
  endfacet
  facet normal 0 0 1
    outer loop
      vertex 3.86271 -11.8882 30
      vertex 1.30661 -12.4315 30
      vertex 5.4078 -16.6435 30
    endloop
  endfacet
  facet normal 0 0 1
    outer loop
      vertex 5.4078 -16.6435 30
      vertex -1.30661 -12.4315 30
      vertex 1.82925 -17.4041 30
    endloop
  endfacet
  facet normal 0 0 1
    outer loop
      vertex 1.82925 -17.4041 30
      vertex -3.86271 -11.8882 30
      vertex -1.82925 -17.4041 30
    endloop
  endfacet
  facet normal 0 0 1
    outer loop
      vertex -3.86271 -11.8882 30
      vertex -6.25 -10.8253 30
      vertex -1.82925 -17.4041 30
    endloop
  endfacet
  facet normal 0 0 1
    outer loop
      vertex -1.82925 -17.4041 30
      vertex -8.36413 -9.28931 30
      vertex -5.4078 -16.6435 30
    endloop
  endfacet
  facet normal 0 0 1
    outer loop
      vertex -8.36413 -9.28931 30
      vertex -10.1127 -7.34732 30
      vertex -5.4078 -16.6435 30
    endloop
  endfacet
  facet normal 0 0 1
    outer loop
      vertex -11.4193 -5.08421 30
      vertex -17.1176 3.63845 30
      vertex -10.1127 -7.34732 30
    endloop
  endfacet
  facet normal 0 0 1
    outer loop
      vertex -11.4193 5.08421 30
      vertex -17.1176 3.63845 30
      vertex -12.2268 2.5989 30
    endloop
  endfacet
  facet normal 0 0 1
    outer loop
      vertex -10.1127 7.34732 30
      vertex -17.1176 3.63845 30
      vertex -11.4193 5.08421 30
    endloop
  endfacet
  facet normal 0 0 1
    outer loop
      vertex -8.36413 9.28931 30
      vertex -17.1176 3.63845 30
      vertex -10.1127 7.34732 30
    endloop
  endfacet
  facet normal 0 0 1
    outer loop
      vertex -6.25 10.8253 30
      vertex -17.1176 3.63845 30
      vertex -8.36413 9.28931 30
    endloop
  endfacet
  facet normal 0 0 1
    outer loop
      vertex 1.82925 17.4041 30
      vertex -17.1176 3.63845 30
      vertex -6.25 10.8253 30
    endloop
  endfacet
  facet normal 0 0 1
    outer loop
      vertex 5.4078 16.6435 30
      vertex -6.25 10.8253 30
      vertex -3.86271 11.8882 30
    endloop
  endfacet
  facet normal 0 0 1
    outer loop
      vertex 8.75 15.1554 30
      vertex -3.86271 11.8882 30
      vertex -1.30661 12.4315 30
    endloop
  endfacet
  facet normal 0 0 1
    outer loop
      vertex 11.7098 13.005 30
      vertex -1.30661 12.4315 30
      vertex 1.30661 12.4315 30
    endloop
  endfacet
  facet normal 0 0 1
    outer loop
      vertex 14.1578 10.2862 30
      vertex 1.30661 12.4315 30
      vertex 3.86271 11.8882 30
    endloop
  endfacet
  facet normal 0 0 1
    outer loop
      vertex 15.2853 8.33333 30
      vertex 3.86271 11.8882 30
      vertex 6.25 10.8253 30
    endloop
  endfacet
  facet normal 0 0 1
    outer loop
      vertex 15.2853 8.33333 30
      vertex 6.25 10.8253 30
      vertex 8.36413 9.28931 30
    endloop
  endfacet
  facet normal 0 0 1
    outer loop
      vertex 15.2853 8.33333 30
      vertex 8.36413 9.28931 30
      vertex 9.2249 8.33333 30
    endloop
  endfacet
  facet normal 0 0 1
    outer loop
      vertex 14.1578 10.2862 30
      vertex 3.86271 11.8882 30
      vertex 15.2853 8.33333 30
    endloop
  endfacet
  facet normal 0 0 1
    outer loop
      vertex 11.7098 13.005 30
      vertex 1.30661 12.4315 30
      vertex 14.1578 10.2862 30
    endloop
  endfacet
  facet normal 0 0 1
    outer loop
      vertex 8.75 15.1554 30
      vertex -1.30661 12.4315 30
      vertex 11.7098 13.005 30
    endloop
  endfacet
  facet normal 0 0 1
    outer loop
      vertex 5.4078 16.6435 30
      vertex -3.86271 11.8882 30
      vertex 8.75 15.1554 30
    endloop
  endfacet
  facet normal 0 0 1
    outer loop
      vertex 1.82925 17.4041 30
      vertex -6.25 10.8253 30
      vertex 5.4078 16.6435 30
    endloop
  endfacet
  facet normal 0 0 1
    outer loop
      vertex -1.82925 17.4041 30
      vertex -17.1176 3.63845 30
      vertex 1.82925 17.4041 30
    endloop
  endfacet
  facet normal 0 0 1
    outer loop
      vertex -5.4078 16.6435 30
      vertex -17.1176 3.63845 30
      vertex -1.82925 17.4041 30
    endloop
  endfacet
  facet normal 0 0 1
    outer loop
      vertex -8.75 15.1554 30
      vertex -17.1176 3.63845 30
      vertex -5.4078 16.6435 30
    endloop
  endfacet
  facet normal 0 0 1
    outer loop
      vertex -11.7098 13.005 30
      vertex -17.1176 3.63845 30
      vertex -8.75 15.1554 30
    endloop
  endfacet
  facet normal 0 0 1
    outer loop
      vertex -14.1578 10.2862 30
      vertex -17.1176 3.63845 30
      vertex -11.7098 13.005 30
    endloop
  endfacet
  facet normal 0 0 1
    outer loop
      vertex -15.987 7.11789 30
      vertex -17.1176 3.63845 30
      vertex -14.1578 10.2862 30
    endloop
  endfacet
  facet normal 0 0 1
    outer loop
      vertex 15.2853 -8.33333 30
      vertex 9.2249 -8.33333 30
      vertex 14.1578 -10.2862 30
    endloop
  endfacet
  facet normal 0 0 1
    outer loop
      vertex -11.4193 -5.08421 30
      vertex -12.2268 -2.5989 30
      vertex -17.1176 3.63845 30
    endloop
  endfacet
  facet normal 0 0 1
    outer loop
      vertex -12.2268 -2.5989 30
      vertex -12.5 0 30
      vertex -17.1176 3.63845 30
    endloop
  endfacet
  facet normal 0 0 1
    outer loop
      vertex -12.5 0 30
      vertex -12.2268 2.5989 30
      vertex -17.1176 3.63845 30
    endloop
  endfacet
  facet normal -0.743145 0.669131 0
    outer loop
      vertex 7.88664 -8.33333 26
      vertex 7.88664 -8.33333 25
      vertex 7.695 -8.54617 26
    endloop
  endfacet
  facet normal -0.743145 0.669131 0
    outer loop
      vertex 7.695 -8.54617 26
      vertex 7.88664 -8.33333 25
      vertex 7.695 -8.54617 25
    endloop
  endfacet
  facet normal 0 0 1
    outer loop
      vertex -12.2268 2.5989 26
      vertex -12.5 0 26
      vertex -12.2268 -2.5989 26
    endloop
  endfacet
  facet normal 0 0 1
    outer loop
      vertex -11.2487 -2.39098 26
      vertex -12.2268 2.5989 26
      vertex -11.4193 -5.08421 26
    endloop
  endfacet
  facet normal 0 0 1
    outer loop
      vertex -11.4193 -5.08421 26
      vertex -12.2268 2.5989 26
      vertex -12.2268 -2.5989 26
    endloop
  endfacet
  facet normal 0 0 1
    outer loop
      vertex -11.2487 -2.39098 26
      vertex -11.5 0 26
      vertex -12.2268 2.5989 26
    endloop
  endfacet
  facet normal 0 0 1
    outer loop
      vertex -10.5058 -4.67747 26
      vertex -11.2487 -2.39098 26
      vertex -10.1127 -7.34732 26
    endloop
  endfacet
  facet normal 0 0 1
    outer loop
      vertex -7.695 -8.54617 26
      vertex -9.30369 -6.75953 26
      vertex -8.36413 -9.28931 26
    endloop
  endfacet
  facet normal 0 0 1
    outer loop
      vertex -5.75 -9.95929 26
      vertex -7.695 -8.54617 26
      vertex -6.25 -10.8253 26
    endloop
  endfacet
  facet normal 0 0 1
    outer loop
      vertex -3.55369 -10.9371 26
      vertex -5.75 -9.95929 26
      vertex -3.86271 -11.8882 26
    endloop
  endfacet
  facet normal 0 0 1
    outer loop
      vertex -1.20208 -11.437 26
      vertex -3.55369 -10.9371 26
      vertex -1.30661 -12.4315 26
    endloop
  endfacet
  facet normal 0 0 1
    outer loop
      vertex 1.20208 -11.437 26
      vertex -1.20208 -11.437 26
      vertex 1.30661 -12.4315 26
    endloop
  endfacet
  facet normal 0 0 1
    outer loop
      vertex 3.55369 -10.9371 26
      vertex 1.20208 -11.437 26
      vertex 3.86271 -11.8882 26
    endloop
  endfacet
  facet normal 0 0 1
    outer loop
      vertex 5.75 -9.95929 26
      vertex 3.55369 -10.9371 26
      vertex 6.25 -10.8253 26
    endloop
  endfacet
  facet normal 0 0 1
    outer loop
      vertex 9.2249 -8.33333 26
      vertex 7.88664 -8.33333 26
      vertex 8.36413 -9.28931 26
    endloop
  endfacet
  facet normal 0 0 1
    outer loop
      vertex 7.88664 -8.33333 26
      vertex 7.695 -8.54617 26
      vertex 8.36413 -9.28931 26
    endloop
  endfacet
  facet normal 0 0 1
    outer loop
      vertex 8.36413 -9.28931 26
      vertex 5.75 -9.95929 26
      vertex 6.25 -10.8253 26
    endloop
  endfacet
  facet normal 0 0 1
    outer loop
      vertex 6.25 -10.8253 26
      vertex 3.55369 -10.9371 26
      vertex 3.86271 -11.8882 26
    endloop
  endfacet
  facet normal 0 0 1
    outer loop
      vertex 3.86271 -11.8882 26
      vertex 1.20208 -11.437 26
      vertex 1.30661 -12.4315 26
    endloop
  endfacet
  facet normal 0 0 1
    outer loop
      vertex 1.30661 -12.4315 26
      vertex -1.20208 -11.437 26
      vertex -1.30661 -12.4315 26
    endloop
  endfacet
  facet normal 0 0 1
    outer loop
      vertex -1.30661 -12.4315 26
      vertex -3.55369 -10.9371 26
      vertex -3.86271 -11.8882 26
    endloop
  endfacet
  facet normal 0 0 1
    outer loop
      vertex -3.86271 -11.8882 26
      vertex -5.75 -9.95929 26
      vertex -6.25 -10.8253 26
    endloop
  endfacet
  facet normal 0 0 1
    outer loop
      vertex -6.25 -10.8253 26
      vertex -7.695 -8.54617 26
      vertex -8.36413 -9.28931 26
    endloop
  endfacet
  facet normal 0 0 1
    outer loop
      vertex -8.36413 -9.28931 26
      vertex -9.30369 -6.75953 26
      vertex -10.1127 -7.34732 26
    endloop
  endfacet
  facet normal 0 0 1
    outer loop
      vertex -9.30369 -6.75953 26
      vertex -10.5058 -4.67747 26
      vertex -10.1127 -7.34732 26
    endloop
  endfacet
  facet normal 0 0 1
    outer loop
      vertex -10.1127 -7.34732 26
      vertex -11.2487 -2.39098 26
      vertex -11.4193 -5.08421 26
    endloop
  endfacet
  facet normal 0 0 1
    outer loop
      vertex -10.5058 4.67747 26
      vertex -12.2268 2.5989 26
      vertex -11.2487 2.39098 26
    endloop
  endfacet
  facet normal 0 0 1
    outer loop
      vertex -9.30369 6.75953 26
      vertex -12.2268 2.5989 26
      vertex -10.5058 4.67747 26
    endloop
  endfacet
  facet normal 0 0 1
    outer loop
      vertex -8.36413 9.28931 26
      vertex -12.2268 2.5989 26
      vertex -9.30369 6.75953 26
    endloop
  endfacet
  facet normal 0 0 1
    outer loop
      vertex -6.25 10.8253 26
      vertex -9.30369 6.75953 26
      vertex -7.695 8.54617 26
    endloop
  endfacet
  facet normal 0 0 1
    outer loop
      vertex -3.86271 11.8882 26
      vertex -7.695 8.54617 26
      vertex -5.75 9.95929 26
    endloop
  endfacet
  facet normal 0 0 1
    outer loop
      vertex -1.30661 12.4315 26
      vertex -5.75 9.95929 26
      vertex -3.55369 10.9371 26
    endloop
  endfacet
  facet normal 0 0 1
    outer loop
      vertex 1.30661 12.4315 26
      vertex -3.55369 10.9371 26
      vertex -1.20208 11.437 26
    endloop
  endfacet
  facet normal 0 0 1
    outer loop
      vertex 3.86271 11.8882 26
      vertex -1.20208 11.437 26
      vertex 1.20208 11.437 26
    endloop
  endfacet
  facet normal 0 0 1
    outer loop
      vertex 6.25 10.8253 26
      vertex 1.20208 11.437 26
      vertex 3.55369 10.9371 26
    endloop
  endfacet
  facet normal 0 0 1
    outer loop
      vertex 8.36413 9.28931 26
      vertex 3.55369 10.9371 26
      vertex 5.75 9.95929 26
    endloop
  endfacet
  facet normal 0 0 1
    outer loop
      vertex 9.2249 8.33333 26
      vertex 5.75 9.95929 26
      vertex 7.695 8.54617 26
    endloop
  endfacet
  facet normal 0 0 1
    outer loop
      vertex 9.2249 8.33333 26
      vertex 7.695 8.54617 26
      vertex 7.88664 8.33333 26
    endloop
  endfacet
  facet normal 0 0 1
    outer loop
      vertex 8.36413 9.28931 26
      vertex 5.75 9.95929 26
      vertex 9.2249 8.33333 26
    endloop
  endfacet
  facet normal 0 0 1
    outer loop
      vertex 6.25 10.8253 26
      vertex 3.55369 10.9371 26
      vertex 8.36413 9.28931 26
    endloop
  endfacet
  facet normal 0 0 1
    outer loop
      vertex 3.86271 11.8882 26
      vertex 1.20208 11.437 26
      vertex 6.25 10.8253 26
    endloop
  endfacet
  facet normal 0 0 1
    outer loop
      vertex 1.30661 12.4315 26
      vertex -1.20208 11.437 26
      vertex 3.86271 11.8882 26
    endloop
  endfacet
  facet normal 0 0 1
    outer loop
      vertex -1.30661 12.4315 26
      vertex -3.55369 10.9371 26
      vertex 1.30661 12.4315 26
    endloop
  endfacet
  facet normal 0 0 1
    outer loop
      vertex -3.86271 11.8882 26
      vertex -5.75 9.95929 26
      vertex -1.30661 12.4315 26
    endloop
  endfacet
  facet normal 0 0 1
    outer loop
      vertex -6.25 10.8253 26
      vertex -7.695 8.54617 26
      vertex -3.86271 11.8882 26
    endloop
  endfacet
  facet normal 0 0 1
    outer loop
      vertex -8.36413 9.28931 26
      vertex -9.30369 6.75953 26
      vertex -6.25 10.8253 26
    endloop
  endfacet
  facet normal 0 0 1
    outer loop
      vertex -10.1127 7.34732 26
      vertex -12.2268 2.5989 26
      vertex -8.36413 9.28931 26
    endloop
  endfacet
  facet normal 0 0 1
    outer loop
      vertex -11.4193 5.08421 26
      vertex -12.2268 2.5989 26
      vertex -10.1127 7.34732 26
    endloop
  endfacet
  facet normal 0 0 1
    outer loop
      vertex 7.695 -8.54617 26
      vertex 5.75 -9.95929 26
      vertex 8.36413 -9.28931 26
    endloop
  endfacet
  facet normal 0 0 1
    outer loop
      vertex -11.5 0 26
      vertex -11.2487 2.39098 26
      vertex -12.2268 2.5989 26
    endloop
  endfacet
  facet normal 0 0 -1
    outer loop
      vertex -12.5 0 25
      vertex -12.2268 2.5989 25
      vertex -12.2268 -2.5989 25
    endloop
  endfacet
  facet normal 0 0 -1
    outer loop
      vertex -12.2268 -2.5989 25
      vertex -12.2268 2.5989 25
      vertex -11.4193 5.08421 25
    endloop
  endfacet
  facet normal 0 0 -1
    outer loop
      vertex -11.2487 2.39098 25
      vertex -11.4193 5.08421 25
      vertex -10.1127 7.34732 25
    endloop
  endfacet
  facet normal 0 0 -1
    outer loop
      vertex -9.30369 6.75953 25
      vertex -10.1127 7.34732 25
      vertex -8.36413 9.28931 25
    endloop
  endfacet
  facet normal 0 0 -1
    outer loop
      vertex -7.695 8.54617 25
      vertex -8.36413 9.28931 25
      vertex -6.25 10.8253 25
    endloop
  endfacet
  facet normal 0 0 -1
    outer loop
      vertex -5.75 9.95929 25
      vertex -6.25 10.8253 25
      vertex -3.86271 11.8882 25
    endloop
  endfacet
  facet normal 0 0 -1
    outer loop
      vertex -3.55369 10.9371 25
      vertex -3.86271 11.8882 25
      vertex -1.30661 12.4315 25
    endloop
  endfacet
  facet normal 0 0 -1
    outer loop
      vertex -1.20208 11.437 25
      vertex -1.30661 12.4315 25
      vertex 1.30661 12.4315 25
    endloop
  endfacet
  facet normal 0 0 -1
    outer loop
      vertex 1.20208 11.437 25
      vertex 1.30661 12.4315 25
      vertex 3.86271 11.8882 25
    endloop
  endfacet
  facet normal 0 0 -1
    outer loop
      vertex 3.55369 10.9371 25
      vertex 3.86271 11.8882 25
      vertex 6.25 10.8253 25
    endloop
  endfacet
  facet normal 0 0 -1
    outer loop
      vertex 5.75 9.95929 25
      vertex 6.25 10.8253 25
      vertex 8.36413 9.28931 25
    endloop
  endfacet
  facet normal 0 0 -1
    outer loop
      vertex 7.88664 8.33333 25
      vertex 8.36413 9.28931 25
      vertex 9.2249 8.33333 25
    endloop
  endfacet
  facet normal 0 0 -1
    outer loop
      vertex 7.695 8.54617 25
      vertex 8.36413 9.28931 25
      vertex 7.88664 8.33333 25
    endloop
  endfacet
  facet normal 0 0 -1
    outer loop
      vertex 3.55369 10.9371 25
      vertex 6.25 10.8253 25
      vertex 5.75 9.95929 25
    endloop
  endfacet
  facet normal 0 0 -1
    outer loop
      vertex 1.20208 11.437 25
      vertex 3.86271 11.8882 25
      vertex 3.55369 10.9371 25
    endloop
  endfacet
  facet normal 0 0 -1
    outer loop
      vertex -1.20208 11.437 25
      vertex 1.30661 12.4315 25
      vertex 1.20208 11.437 25
    endloop
  endfacet
  facet normal 0 0 -1
    outer loop
      vertex -3.55369 10.9371 25
      vertex -1.30661 12.4315 25
      vertex -1.20208 11.437 25
    endloop
  endfacet
  facet normal 0 0 -1
    outer loop
      vertex -5.75 9.95929 25
      vertex -3.86271 11.8882 25
      vertex -3.55369 10.9371 25
    endloop
  endfacet
  facet normal 0 0 -1
    outer loop
      vertex -7.695 8.54617 25
      vertex -6.25 10.8253 25
      vertex -5.75 9.95929 25
    endloop
  endfacet
  facet normal 0 0 -1
    outer loop
      vertex -9.30369 6.75953 25
      vertex -8.36413 9.28931 25
      vertex -7.695 8.54617 25
    endloop
  endfacet
  facet normal 0 0 -1
    outer loop
      vertex -10.5058 4.67747 25
      vertex -10.1127 7.34732 25
      vertex -9.30369 6.75953 25
    endloop
  endfacet
  facet normal 0 0 -1
    outer loop
      vertex -11.2487 2.39098 25
      vertex -10.1127 7.34732 25
      vertex -10.5058 4.67747 25
    endloop
  endfacet
  facet normal 0 0 -1
    outer loop
      vertex -12.2268 -2.5989 25
      vertex -11.4193 5.08421 25
      vertex -11.2487 2.39098 25
    endloop
  endfacet
  facet normal 0 0 -1
    outer loop
      vertex -11.5 0 25
      vertex -12.2268 -2.5989 25
      vertex -11.2487 2.39098 25
    endloop
  endfacet
  facet normal 0 0 -1
    outer loop
      vertex -11.2487 -2.39098 25
      vertex -12.2268 -2.5989 25
      vertex -11.5 0 25
    endloop
  endfacet
  facet normal 0 0 -1
    outer loop
      vertex -12.2268 -2.5989 25
      vertex -11.2487 -2.39098 25
      vertex -10.5058 -4.67747 25
    endloop
  endfacet
  facet normal 0 0 -1
    outer loop
      vertex -10.5058 -4.67747 25
      vertex -9.30369 -6.75953 25
      vertex -12.2268 -2.5989 25
    endloop
  endfacet
  facet normal 0 0 -1
    outer loop
      vertex 7.695 -8.54617 25
      vertex 7.88664 -8.33333 25
      vertex 9.2249 -8.33333 25
    endloop
  endfacet
  facet normal 0 0 -1
    outer loop
      vertex 7.695 -8.54617 25
      vertex 9.2249 -8.33333 25
      vertex 5.75 -9.95929 25
    endloop
  endfacet
  facet normal 0 0 -1
    outer loop
      vertex 5.75 -9.95929 25
      vertex 9.2249 -8.33333 25
      vertex 8.36413 -9.28931 25
    endloop
  endfacet
  facet normal 0 0 -1
    outer loop
      vertex 5.75 -9.95929 25
      vertex 8.36413 -9.28931 25
      vertex 3.55369 -10.9371 25
    endloop
  endfacet
  facet normal 0 0 -1
    outer loop
      vertex 3.55369 -10.9371 25
      vertex 8.36413 -9.28931 25
      vertex 6.25 -10.8253 25
    endloop
  endfacet
  facet normal 0 0 -1
    outer loop
      vertex 3.55369 -10.9371 25
      vertex 6.25 -10.8253 25
      vertex 1.20208 -11.437 25
    endloop
  endfacet
  facet normal 0 0 -1
    outer loop
      vertex 1.20208 -11.437 25
      vertex 6.25 -10.8253 25
      vertex 3.86271 -11.8882 25
    endloop
  endfacet
  facet normal 0 0 -1
    outer loop
      vertex 1.20208 -11.437 25
      vertex 3.86271 -11.8882 25
      vertex -1.20208 -11.437 25
    endloop
  endfacet
  facet normal 0 0 -1
    outer loop
      vertex -1.20208 -11.437 25
      vertex 3.86271 -11.8882 25
      vertex 1.30661 -12.4315 25
    endloop
  endfacet
  facet normal 0 0 -1
    outer loop
      vertex -1.20208 -11.437 25
      vertex 1.30661 -12.4315 25
      vertex -3.55369 -10.9371 25
    endloop
  endfacet
  facet normal 0 0 -1
    outer loop
      vertex -3.55369 -10.9371 25
      vertex 1.30661 -12.4315 25
      vertex -1.30661 -12.4315 25
    endloop
  endfacet
  facet normal 0 0 -1
    outer loop
      vertex -3.55369 -10.9371 25
      vertex -1.30661 -12.4315 25
      vertex -5.75 -9.95929 25
    endloop
  endfacet
  facet normal 0 0 -1
    outer loop
      vertex -5.75 -9.95929 25
      vertex -1.30661 -12.4315 25
      vertex -3.86271 -11.8882 25
    endloop
  endfacet
  facet normal 0 0 -1
    outer loop
      vertex -5.75 -9.95929 25
      vertex -3.86271 -11.8882 25
      vertex -7.695 -8.54617 25
    endloop
  endfacet
  facet normal 0 0 -1
    outer loop
      vertex -7.695 -8.54617 25
      vertex -3.86271 -11.8882 25
      vertex -6.25 -10.8253 25
    endloop
  endfacet
  facet normal 0 0 -1
    outer loop
      vertex -7.695 -8.54617 25
      vertex -6.25 -10.8253 25
      vertex -9.30369 -6.75953 25
    endloop
  endfacet
  facet normal 0 0 -1
    outer loop
      vertex -9.30369 -6.75953 25
      vertex -6.25 -10.8253 25
      vertex -8.36413 -9.28931 25
    endloop
  endfacet
  facet normal 0 0 -1
    outer loop
      vertex -9.30369 -6.75953 25
      vertex -8.36413 -9.28931 25
      vertex -12.2268 -2.5989 25
    endloop
  endfacet
  facet normal 0 0 -1
    outer loop
      vertex -12.2268 -2.5989 25
      vertex -8.36413 -9.28931 25
      vertex -10.1127 -7.34732 25
    endloop
  endfacet
  facet normal 0 0 -1
    outer loop
      vertex -12.2268 -2.5989 25
      vertex -10.1127 -7.34732 25
      vertex -11.4193 -5.08421 25
    endloop
  endfacet
  facet normal 0 0 -1
    outer loop
      vertex 5.75 9.95929 25
      vertex 8.36413 9.28931 25
      vertex 7.695 8.54617 25
    endloop
  endfacet
  facet normal -0.743145 0.669131 0
    outer loop
      vertex 9.2249 -8.33333 30
      vertex 9.2249 -8.33333 26
      vertex 8.36413 -9.28931 30
    endloop
  endfacet
  facet normal -0.743145 0.669131 0
    outer loop
      vertex 8.36413 -9.28931 30
      vertex 9.2249 -8.33333 26
      vertex 8.36413 -9.28931 26
    endloop
  endfacet
  facet normal -0.743145 -0.669131 0
    outer loop
      vertex 7.88664 8.33333 26
      vertex 7.695 8.54617 26
      vertex 7.88664 8.33333 25
    endloop
  endfacet
  facet normal -0.743145 -0.669131 0
    outer loop
      vertex 7.88664 8.33333 25
      vertex 7.695 8.54617 26
      vertex 7.695 8.54617 25
    endloop
  endfacet
  facet normal -0.743145 -0.669131 0
    outer loop
      vertex 9.2249 8.33333 30
      vertex 8.36413 9.28931 30
      vertex 9.2249 8.33333 26
    endloop
  endfacet
  facet normal -0.743145 -0.669131 0
    outer loop
      vertex 9.2249 8.33333 26
      vertex 8.36413 9.28931 30
      vertex 8.36413 9.28931 26
    endloop
  endfacet
  facet normal -0.587785 -0.809017 0
    outer loop
      vertex 8.36413 9.28931 26
      vertex 8.36413 9.28931 30
      vertex 6.25 10.8253 30
    endloop
  endfacet
  facet normal -0.587785 -0.809017 0
    outer loop
      vertex 6.25 10.8253 26
      vertex 8.36413 9.28931 26
      vertex 6.25 10.8253 30
    endloop
  endfacet
  facet normal -0.406736 -0.913546 0
    outer loop
      vertex 6.25 10.8253 26
      vertex 6.25 10.8253 30
      vertex 3.86271 11.8882 30
    endloop
  endfacet
  facet normal -0.406736 -0.913546 0
    outer loop
      vertex 3.86271 11.8882 26
      vertex 6.25 10.8253 26
      vertex 3.86271 11.8882 30
    endloop
  endfacet
  facet normal -0.207912 -0.978148 0
    outer loop
      vertex 3.86271 11.8882 26
      vertex 3.86271 11.8882 30
      vertex 1.30661 12.4315 30
    endloop
  endfacet
  facet normal -0.207912 -0.978148 0
    outer loop
      vertex 1.30661 12.4315 26
      vertex 3.86271 11.8882 26
      vertex 1.30661 12.4315 30
    endloop
  endfacet
  facet normal 0 -1 0
    outer loop
      vertex 1.30661 12.4315 26
      vertex 1.30661 12.4315 30
      vertex -1.30661 12.4315 30
    endloop
  endfacet
  facet normal 0 -1 0
    outer loop
      vertex -1.30661 12.4315 26
      vertex 1.30661 12.4315 26
      vertex -1.30661 12.4315 30
    endloop
  endfacet
  facet normal 0.207912 -0.978148 0
    outer loop
      vertex -1.30661 12.4315 26
      vertex -1.30661 12.4315 30
      vertex -3.86271 11.8882 30
    endloop
  endfacet
  facet normal 0.207912 -0.978148 0
    outer loop
      vertex -3.86271 11.8882 26
      vertex -1.30661 12.4315 26
      vertex -3.86271 11.8882 30
    endloop
  endfacet
  facet normal 0.406736 -0.913546 0
    outer loop
      vertex -3.86271 11.8882 26
      vertex -3.86271 11.8882 30
      vertex -6.25 10.8253 30
    endloop
  endfacet
  facet normal 0.406736 -0.913546 0
    outer loop
      vertex -6.25 10.8253 26
      vertex -3.86271 11.8882 26
      vertex -6.25 10.8253 30
    endloop
  endfacet
  facet normal 0.587785 -0.809017 0
    outer loop
      vertex -6.25 10.8253 26
      vertex -6.25 10.8253 30
      vertex -8.36413 9.28931 30
    endloop
  endfacet
  facet normal 0.587785 -0.809017 0
    outer loop
      vertex -8.36413 9.28931 26
      vertex -6.25 10.8253 26
      vertex -8.36413 9.28931 30
    endloop
  endfacet
  facet normal 0.743145 -0.669131 0
    outer loop
      vertex -8.36413 9.28931 26
      vertex -8.36413 9.28931 30
      vertex -10.1127 7.34732 30
    endloop
  endfacet
  facet normal 0.743145 -0.669131 0
    outer loop
      vertex -10.1127 7.34732 26
      vertex -8.36413 9.28931 26
      vertex -10.1127 7.34732 30
    endloop
  endfacet
  facet normal 0.866025 -0.5 0
    outer loop
      vertex -10.1127 7.34732 26
      vertex -10.1127 7.34732 30
      vertex -11.4193 5.08421 30
    endloop
  endfacet
  facet normal 0.866025 -0.5 0
    outer loop
      vertex -11.4193 5.08421 26
      vertex -10.1127 7.34732 26
      vertex -11.4193 5.08421 30
    endloop
  endfacet
  facet normal 0.951056 -0.309017 0
    outer loop
      vertex -11.4193 5.08421 26
      vertex -11.4193 5.08421 30
      vertex -12.2268 2.5989 30
    endloop
  endfacet
  facet normal 0.951056 -0.309017 0
    outer loop
      vertex -12.2268 2.5989 26
      vertex -11.4193 5.08421 26
      vertex -12.2268 2.5989 30
    endloop
  endfacet
  facet normal 0.994522 -0.104528 0
    outer loop
      vertex -12.2268 2.5989 26
      vertex -12.2268 2.5989 30
      vertex -12.5 0 30
    endloop
  endfacet
  facet normal 0.994522 -0.104528 0
    outer loop
      vertex -12.5 0 26
      vertex -12.2268 2.5989 26
      vertex -12.5 0 30
    endloop
  endfacet
  facet normal 0.994522 0.104528 0
    outer loop
      vertex -12.5 0 30
      vertex -12.2268 -2.5989 30
      vertex -12.2268 -2.5989 26
    endloop
  endfacet
  facet normal 0.994522 0.104528 0
    outer loop
      vertex -12.5 0 26
      vertex -12.5 0 30
      vertex -12.2268 -2.5989 26
    endloop
  endfacet
  facet normal 0.951056 0.309017 0
    outer loop
      vertex -12.2268 -2.5989 30
      vertex -11.4193 -5.08421 30
      vertex -11.4193 -5.08421 26
    endloop
  endfacet
  facet normal 0.951056 0.309017 0
    outer loop
      vertex -12.2268 -2.5989 26
      vertex -12.2268 -2.5989 30
      vertex -11.4193 -5.08421 26
    endloop
  endfacet
  facet normal 0.866025 0.5 0
    outer loop
      vertex -11.4193 -5.08421 30
      vertex -10.1127 -7.34732 30
      vertex -10.1127 -7.34732 26
    endloop
  endfacet
  facet normal 0.866025 0.5 0
    outer loop
      vertex -11.4193 -5.08421 26
      vertex -11.4193 -5.08421 30
      vertex -10.1127 -7.34732 26
    endloop
  endfacet
  facet normal 0.743145 0.669131 0
    outer loop
      vertex -10.1127 -7.34732 30
      vertex -8.36413 -9.28931 30
      vertex -8.36413 -9.28931 26
    endloop
  endfacet
  facet normal 0.743145 0.669131 0
    outer loop
      vertex -10.1127 -7.34732 26
      vertex -10.1127 -7.34732 30
      vertex -8.36413 -9.28931 26
    endloop
  endfacet
  facet normal 0.587785 0.809017 0
    outer loop
      vertex -6.25 -10.8253 30
      vertex -6.25 -10.8253 26
      vertex -8.36413 -9.28931 30
    endloop
  endfacet
  facet normal 0.587785 0.809017 0
    outer loop
      vertex -8.36413 -9.28931 30
      vertex -6.25 -10.8253 26
      vertex -8.36413 -9.28931 26
    endloop
  endfacet
  facet normal 0.406736 0.913546 0
    outer loop
      vertex -3.86271 -11.8882 30
      vertex -3.86271 -11.8882 26
      vertex -6.25 -10.8253 30
    endloop
  endfacet
  facet normal 0.406736 0.913546 0
    outer loop
      vertex -6.25 -10.8253 30
      vertex -3.86271 -11.8882 26
      vertex -6.25 -10.8253 26
    endloop
  endfacet
  facet normal 0.207912 0.978148 0
    outer loop
      vertex -1.30661 -12.4315 30
      vertex -1.30661 -12.4315 26
      vertex -3.86271 -11.8882 30
    endloop
  endfacet
  facet normal 0.207912 0.978148 0
    outer loop
      vertex -3.86271 -11.8882 30
      vertex -1.30661 -12.4315 26
      vertex -3.86271 -11.8882 26
    endloop
  endfacet
  facet normal 0 1 0
    outer loop
      vertex 1.30661 -12.4315 30
      vertex 1.30661 -12.4315 26
      vertex -1.30661 -12.4315 30
    endloop
  endfacet
  facet normal 0 1 0
    outer loop
      vertex -1.30661 -12.4315 30
      vertex 1.30661 -12.4315 26
      vertex -1.30661 -12.4315 26
    endloop
  endfacet
  facet normal -0.207912 0.978148 0
    outer loop
      vertex 3.86271 -11.8882 30
      vertex 3.86271 -11.8882 26
      vertex 1.30661 -12.4315 30
    endloop
  endfacet
  facet normal -0.207912 0.978148 0
    outer loop
      vertex 1.30661 -12.4315 30
      vertex 3.86271 -11.8882 26
      vertex 1.30661 -12.4315 26
    endloop
  endfacet
  facet normal -0.406736 0.913546 0
    outer loop
      vertex 6.25 -10.8253 30
      vertex 6.25 -10.8253 26
      vertex 3.86271 -11.8882 30
    endloop
  endfacet
  facet normal -0.406736 0.913546 0
    outer loop
      vertex 3.86271 -11.8882 30
      vertex 6.25 -10.8253 26
      vertex 3.86271 -11.8882 26
    endloop
  endfacet
  facet normal -0.587785 0.809017 0
    outer loop
      vertex 8.36413 -9.28931 30
      vertex 8.36413 -9.28931 26
      vertex 6.25 -10.8253 30
    endloop
  endfacet
  facet normal -0.587785 0.809017 0
    outer loop
      vertex 6.25 -10.8253 30
      vertex 8.36413 -9.28931 26
      vertex 6.25 -10.8253 26
    endloop
  endfacet
  facet normal -0.587785 0.809017 0
    outer loop
      vertex 7.695 -8.54617 26
      vertex 7.695 -8.54617 25
      vertex 5.75 -9.95929 26
    endloop
  endfacet
  facet normal -0.587785 0.809017 0
    outer loop
      vertex 5.75 -9.95929 26
      vertex 7.695 -8.54617 25
      vertex 5.75 -9.95929 25
    endloop
  endfacet
  facet normal -0.587785 -0.809017 0
    outer loop
      vertex 7.695 8.54617 25
      vertex 7.695 8.54617 26
      vertex 5.75 9.95929 26
    endloop
  endfacet
  facet normal -0.587785 -0.809017 0
    outer loop
      vertex 5.75 9.95929 25
      vertex 7.695 8.54617 25
      vertex 5.75 9.95929 26
    endloop
  endfacet
  facet normal -0.406737 -0.913545 0
    outer loop
      vertex 5.75 9.95929 25
      vertex 5.75 9.95929 26
      vertex 3.55369 10.9371 26
    endloop
  endfacet
  facet normal -0.406737 -0.913545 0
    outer loop
      vertex 3.55369 10.9371 25
      vertex 5.75 9.95929 25
      vertex 3.55369 10.9371 26
    endloop
  endfacet
  facet normal -0.207912 -0.978148 0
    outer loop
      vertex 3.55369 10.9371 25
      vertex 3.55369 10.9371 26
      vertex 1.20208 11.437 26
    endloop
  endfacet
  facet normal -0.207912 -0.978148 0
    outer loop
      vertex 1.20208 11.437 25
      vertex 3.55369 10.9371 25
      vertex 1.20208 11.437 26
    endloop
  endfacet
  facet normal 0 -1 0
    outer loop
      vertex 1.20208 11.437 25
      vertex 1.20208 11.437 26
      vertex -1.20208 11.437 26
    endloop
  endfacet
  facet normal 0 -1 0
    outer loop
      vertex -1.20208 11.437 25
      vertex 1.20208 11.437 25
      vertex -1.20208 11.437 26
    endloop
  endfacet
  facet normal 0.207912 -0.978148 0
    outer loop
      vertex -1.20208 11.437 25
      vertex -1.20208 11.437 26
      vertex -3.55369 10.9371 26
    endloop
  endfacet
  facet normal 0.207912 -0.978148 0
    outer loop
      vertex -3.55369 10.9371 25
      vertex -1.20208 11.437 25
      vertex -3.55369 10.9371 26
    endloop
  endfacet
  facet normal 0.406737 -0.913545 0
    outer loop
      vertex -3.55369 10.9371 25
      vertex -3.55369 10.9371 26
      vertex -5.75 9.95929 26
    endloop
  endfacet
  facet normal 0.406737 -0.913545 0
    outer loop
      vertex -5.75 9.95929 25
      vertex -3.55369 10.9371 25
      vertex -5.75 9.95929 26
    endloop
  endfacet
  facet normal 0.587785 -0.809017 0
    outer loop
      vertex -5.75 9.95929 25
      vertex -5.75 9.95929 26
      vertex -7.695 8.54617 26
    endloop
  endfacet
  facet normal 0.587785 -0.809017 0
    outer loop
      vertex -7.695 8.54617 25
      vertex -5.75 9.95929 25
      vertex -7.695 8.54617 26
    endloop
  endfacet
  facet normal 0.743145 -0.669131 0
    outer loop
      vertex -7.695 8.54617 25
      vertex -7.695 8.54617 26
      vertex -9.30369 6.75953 26
    endloop
  endfacet
  facet normal 0.743145 -0.669131 0
    outer loop
      vertex -9.30369 6.75953 25
      vertex -7.695 8.54617 25
      vertex -9.30369 6.75953 26
    endloop
  endfacet
  facet normal 0.866025 -0.5 0
    outer loop
      vertex -9.30369 6.75953 25
      vertex -9.30369 6.75953 26
      vertex -10.5058 4.67747 26
    endloop
  endfacet
  facet normal 0.866025 -0.5 0
    outer loop
      vertex -10.5058 4.67747 25
      vertex -9.30369 6.75953 25
      vertex -10.5058 4.67747 26
    endloop
  endfacet
  facet normal 0.951057 -0.309017 0
    outer loop
      vertex -10.5058 4.67747 25
      vertex -10.5058 4.67747 26
      vertex -11.2487 2.39098 26
    endloop
  endfacet
  facet normal 0.951057 -0.309017 0
    outer loop
      vertex -11.2487 2.39098 25
      vertex -10.5058 4.67747 25
      vertex -11.2487 2.39098 26
    endloop
  endfacet
  facet normal 0.994522 -0.104529 0
    outer loop
      vertex -11.2487 2.39098 25
      vertex -11.2487 2.39098 26
      vertex -11.5 0 26
    endloop
  endfacet
  facet normal 0.994522 -0.104529 0
    outer loop
      vertex -11.5 0 25
      vertex -11.2487 2.39098 25
      vertex -11.5 0 26
    endloop
  endfacet
  facet normal 0.994522 0.104529 0
    outer loop
      vertex -11.5 0 26
      vertex -11.2487 -2.39098 26
      vertex -11.2487 -2.39098 25
    endloop
  endfacet
  facet normal 0.994522 0.104529 0
    outer loop
      vertex -11.5 0 25
      vertex -11.5 0 26
      vertex -11.2487 -2.39098 25
    endloop
  endfacet
  facet normal 0.951057 0.309017 0
    outer loop
      vertex -11.2487 -2.39098 26
      vertex -10.5058 -4.67747 26
      vertex -10.5058 -4.67747 25
    endloop
  endfacet
  facet normal 0.951057 0.309017 0
    outer loop
      vertex -11.2487 -2.39098 25
      vertex -11.2487 -2.39098 26
      vertex -10.5058 -4.67747 25
    endloop
  endfacet
  facet normal 0.866025 0.5 0
    outer loop
      vertex -10.5058 -4.67747 26
      vertex -9.30369 -6.75953 26
      vertex -9.30369 -6.75953 25
    endloop
  endfacet
  facet normal 0.866025 0.5 0
    outer loop
      vertex -10.5058 -4.67747 25
      vertex -10.5058 -4.67747 26
      vertex -9.30369 -6.75953 25
    endloop
  endfacet
  facet normal 0.743145 0.669131 0
    outer loop
      vertex -9.30369 -6.75953 26
      vertex -7.695 -8.54617 26
      vertex -7.695 -8.54617 25
    endloop
  endfacet
  facet normal 0.743145 0.669131 0
    outer loop
      vertex -9.30369 -6.75953 25
      vertex -9.30369 -6.75953 26
      vertex -7.695 -8.54617 25
    endloop
  endfacet
  facet normal 0.587785 0.809017 0
    outer loop
      vertex -5.75 -9.95929 26
      vertex -5.75 -9.95929 25
      vertex -7.695 -8.54617 26
    endloop
  endfacet
  facet normal 0.587785 0.809017 0
    outer loop
      vertex -7.695 -8.54617 26
      vertex -5.75 -9.95929 25
      vertex -7.695 -8.54617 25
    endloop
  endfacet
  facet normal 0.406737 0.913545 0
    outer loop
      vertex -3.55369 -10.9371 26
      vertex -3.55369 -10.9371 25
      vertex -5.75 -9.95929 26
    endloop
  endfacet
  facet normal 0.406737 0.913545 0
    outer loop
      vertex -5.75 -9.95929 26
      vertex -3.55369 -10.9371 25
      vertex -5.75 -9.95929 25
    endloop
  endfacet
  facet normal 0.207912 0.978148 0
    outer loop
      vertex -1.20208 -11.437 26
      vertex -1.20208 -11.437 25
      vertex -3.55369 -10.9371 26
    endloop
  endfacet
  facet normal 0.207912 0.978148 0
    outer loop
      vertex -3.55369 -10.9371 26
      vertex -1.20208 -11.437 25
      vertex -3.55369 -10.9371 25
    endloop
  endfacet
  facet normal 0 1 0
    outer loop
      vertex 1.20208 -11.437 26
      vertex 1.20208 -11.437 25
      vertex -1.20208 -11.437 26
    endloop
  endfacet
  facet normal 0 1 0
    outer loop
      vertex -1.20208 -11.437 26
      vertex 1.20208 -11.437 25
      vertex -1.20208 -11.437 25
    endloop
  endfacet
  facet normal -0.207912 0.978148 0
    outer loop
      vertex 3.55369 -10.9371 26
      vertex 3.55369 -10.9371 25
      vertex 1.20208 -11.437 26
    endloop
  endfacet
  facet normal -0.207912 0.978148 0
    outer loop
      vertex 1.20208 -11.437 26
      vertex 3.55369 -10.9371 25
      vertex 1.20208 -11.437 25
    endloop
  endfacet
  facet normal -0.406737 0.913545 0
    outer loop
      vertex 5.75 -9.95929 26
      vertex 5.75 -9.95929 25
      vertex 3.55369 -10.9371 26
    endloop
  endfacet
  facet normal -0.406737 0.913545 0
    outer loop
      vertex 3.55369 -10.9371 26
      vertex 5.75 -9.95929 25
      vertex 3.55369 -10.9371 25
    endloop
  endfacet
endsolid OpenSCAD_Model
